<?xml version="1.0" encoding="UTF-8" standalone="no"?>
<!-- Created with Inkscape (http://www.inkscape.org/) -->

<svg
   width="300"
   height="300"
   viewBox="0 0 79.374998 79.375"
   version="1.1"
   id="svg1"
   inkscape:version="1.4.2 (f4327f4, 2025-05-13)"
   sodipodi:docname="logonew.svg"
   xmlns:inkscape="http://www.inkscape.org/namespaces/inkscape"
   xmlns:sodipodi="http://sodipodi.sourceforge.net/DTD/sodipodi-0.dtd"
   xmlns="http://www.w3.org/2000/svg"
   xmlns:svg="http://www.w3.org/2000/svg">
  <sodipodi:namedview
     id="namedview1"
     pagecolor="#ffffff"
     bordercolor="#000000"
     borderopacity="0.25"
     inkscape:showpageshadow="2"
     inkscape:pageopacity="0.0"
     inkscape:pagecheckerboard="0"
     inkscape:deskcolor="#d1d1d1"
     inkscape:document-units="mm"
     inkscape:zoom="1.0167041"
     inkscape:cx="441.13131"
     inkscape:cy="12.29463"
     inkscape:window-width="1920"
     inkscape:window-height="1009"
     inkscape:window-x="1358"
     inkscape:window-y="-8"
     inkscape:window-maximized="1"
     inkscape:current-layer="layer1"
     showgrid="true">
    <inkscape:grid
       id="grid2"
       units="mm"
       originx="0"
       originy="0"
       spacingx="0.99999997"
       spacingy="1"
       empcolor="#0099e5"
       empopacity="0.30196078"
       color="#0099e5"
       opacity="0.14901961"
       empspacing="5"
       enabled="false"
       visible="true" />
  </sodipodi:namedview>
  <defs
     id="defs1" />
  <g
     inkscape:label="Capa 1"
     inkscape:groupmode="layer"
     id="layer1">
    <path
       style="fill:#0400ed;fill-opacity:0.994071;stroke:#040496;stroke-width:0.1;stroke-dasharray:none;stroke-opacity:1"
       id="path1"
       d="m 14.050748,19.567729 c -3.002972,-2.337745 -2.355393,-7.09516 2.262975,-8.512245 0.519896,-0.17908 1.067892,-0.25469 1.611317,-0.323028 0.577615,-0.06426 1.158963,-0.06372 1.738563,-0.03468 0.564115,0.02874 1.116517,0.152496 1.662531,0.289499 0.506928,0.173518 0.992937,0.404549 1.456667,0.671957 0.442356,0.253387 0.844638,0.565772 1.216837,0.912492 0.360358,0.365023 0.698364,0.751223 0.985725,1.176319 0.313637,0.459561 0.55461,0.959063 0.777815,1.466829 0.255578,0.571429 0.46684,1.160691 0.66764,1.753098 0.241743,0.706246 0.417283,1.432353 0.556479,2.165 0.155687,0.926536 0.209923,1.865869 0.244417,2.803486 0.0308,0.932056 -6.88e-4,1.399591 -0.05729,2.435815 -0.06402,1.124327 -0.170964,2.24548 -0.274536,3.366656 -0.129615,1.182186 -0.19537,2.369144 -0.239029,3.557142 -0.05094,1.41655 0.0048,2.83147 0.126604,4.242448 0.108694,0.914069 0.214889,1.840264 0.471783,2.727748 0.04605,0.159099 0.105968,0.313857 0.158952,0.470786 0.314511,0.902867 0.804356,1.716472 1.385873,2.469267 0.530606,0.683299 1.236885,1.183039 1.955554,1.648788 0.739902,0.463767 1.566101,0.73452 2.409749,0.934553 0.887417,0.217673 1.795309,0.294862 2.705367,0.329221 0.927224,0.01765 1.84481,-0.108117 2.759747,-0.239921 0.922657,-0.144018 1.830964,-0.364509 2.72901,-0.617877 4.114336,-1.017396 7.008335,-3.495824 8.481518,-5.037499 0.434824,-0.463638 0.78908,-0.991751 1.084347,-1.552634 0.29719,-0.622099 0.426807,-1.301972 0.552029,-1.974778 0.153252,-0.797348 0.249431,-1.603627 0.344104,-2.409508 0.114596,-0.941398 0.164719,-1.888283 0.206899,-2.835108 0.04384,-1.068221 0.07422,-2.136923 0.100441,-3.205702 0.02413,-1.028159 0.04078,-2.05647 0.05585,-3.084795 0.01654,-1.027191 0.04235,-2.054029 0.09337,-3.080105 0.04518,-1.055455 0.167298,-2.104488 0.328133,-3.147894 0.145603,-0.992617 0.368266,-1.969624 0.649328,-2.93194 0.237056,-0.81588 0.55487,-1.603328 0.954103,-2.352627 0.365961,-0.668745 0.848892,-1.256194 1.383771,-1.7949408 0.502835,-0.48675 1.093615,-0.8631068 1.711118,-1.1855309 0.590519,-0.2870005 1.221735,-0.4736796 1.855592,-0.6369616 0.679323,-0.1771873 1.368319,-0.3057264 2.06434,-0.3952148 0.664493,-0.078104 1.331595,-0.1296209 1.996062,-0.2082165 0.542575,-0.054492 1.072398,-0.1749838 1.593813,-0.3308307 0.435252,-0.1345483 0.836403,-0.3462597 1.224071,-0.5816428 2.109448,-1.1124049 2.338997,-2.7479174 2.196739,-4.5926031 -0.1193,-1.48906737 0.06129,1.2788408 -1.240303,2.4170929 -0.300238,0.2757702 -0.620943,0.5275329 -0.956439,0.7592523 -0.388729,0.2530875 -0.793761,0.479479 -1.224071,0.6551025 -0.514144,0.2067597 -1.047774,0.3541533 -1.593813,0.4504288 -0.662372,0.1226188 -1.328989,0.2186162 -1.996062,0.3118226 -0.689734,0.089416 -1.386163,0.1541071 -2.06434,0.3121202 -0.640805,0.1663991 -1.271691,0.3665093 -1.855592,0.6857148 -0.624059,0.3266723 -1.215456,0.7065484 -1.711118,1.2137239 -0.541205,0.5642626 -1.024356,1.177277 -1.383771,1.8757382 -0.135144,0.27157 -0.23984,0.471888 -0.358786,0.751424 -0.240694,0.565661 -0.422232,1.154504 -0.595317,1.743523 -0.274908,0.999829 -0.499058,2.01189 -0.649328,3.038574 -0.157892,1.034889 -0.287178,2.07409 -0.328133,3.121146 -0.05123,1.024825 -0.07623,2.05042 -0.09337,3.076355 -0.01466,1.039742 -0.03145,2.079462 -0.05585,3.119028 -0.02548,1.056474 -0.05288,2.112999 -0.100441,3.168753 -0.04373,0.889487 -0.09457,1.779339 -0.206899,2.663314 -0.09451,0.776431 -0.194257,1.553038 -0.344104,2.321087 -0.127344,0.627597 -0.276796,1.253371 -0.552029,1.835396 -0.294077,0.601858 -0.647084,1.16859 -1.084347,1.678622 -0.524494,0.613908 -1.091332,1.19234 -1.715077,1.706459 -0.652238,0.532488 -1.325502,1.042898 -2.050021,1.474169 -0.724831,0.380632 -1.429176,0.801902 -2.183773,1.124198 -0.825579,0.359657 -1.664694,0.684213 -2.532647,0.928646 -0.899935,0.247404 -1.805898,0.472252 -2.72901,0.616706 -0.912643,0.141256 -1.835476,0.216734 -2.759747,0.193244 -0.909545,-0.02508 -1.821156,-0.104775 -2.705367,-0.330472 -0.835862,-0.241965 -1.657353,-0.535575 -2.409749,-0.980607 -0.276214,-0.166402 -0.45366,-0.264388 -0.713681,-0.457033 -0.459013,-0.340067 -0.863574,-0.749483 -1.241873,-1.175428 -0.573233,-0.704744 -1.068752,-1.467874 -1.385873,-2.324801 -0.05298,-0.158327 -0.111181,-0.315005 -0.158952,-0.474983 -0.246669,-0.826058 -0.367767,-1.68539 -0.471783,-2.538716 -0.09353,-1.023025 -0.160006,-2.041284 -0.126604,-2.960275 0.04154,-1.193874 0.109269,-2.386023 0.239029,-3.574029 0.100404,-1.109716 0.208386,-2.219045 0.274536,-3.331496 0.06652,-1.221809 0.0945,-2.445295 0.05729,-3.668792 -0.03745,-0.954247 -0.09854,-1.909064 -0.244417,-2.85373 C 24.729052,5.9750457 13.317086,9.8135958 12.021191,14.837665 c -1.705982,7.370518 12.088924,8.818415 7.637049,1.477703 2.613699,7.048903 -5.255523,3.573002 -5.607492,3.252361 z"
       sodipodi:nodetypes="ccccccccccccccccscccccccccccccccccccccccccccccccccccsccccccccccccccccccsccsccccccccc" />
    <path
       style="fill:#101aa5;fill-opacity:0.994071;stroke:#040496;stroke-width:0.1;stroke-dasharray:none;stroke-opacity:1"
       id="path3"
       d="m 37.281632,62.048011 c -0.03675,2.666605 1.771953,4.919779 3.943254,7.626411 3.602736,4.038452 14.467256,3.002442 17.470876,2.760327 C 62.398095,71.659971 45.566709,78.75587 38.543364,65.310863 37.234246,63.116631 37.259876,55.240652 37.304257,54.808329 37.460299,50.193777 38.331197,38.098543 37.0828,29.795238 38.883828,40.390303 36.547371,52.111103 36.959605,59.011766 Z"
       sodipodi:nodetypes="cccccccc" />
  </g>
</svg>
